<?xml version="1.0" encoding="UTF-8"?>
<svg width="454px" height="143px" viewBox="0 0 454 143" version="1.1" xmlns="http://www.w3.org/2000/svg" xmlns:xlink="http://www.w3.org/1999/xlink" xmlns:sketch="http://www.bohemiancoding.com/sketch/ns">
    <!-- Generator: Sketch 3.1.1 (8761) - http://www.bohemiancoding.com/sketch -->
    <title>01 CSSDAY Logo RGB 2018</title>
    <desc>Created with Sketch.</desc>
    <defs></defs>
    <g id="Page-3" stroke="none" stroke-width="1" fill="none" fill-rule="evenodd" sketch:type="MSPage">
        <g id="01-CSSDAY-Logo-RGB-2018" sketch:type="MSLayerGroup" transform="translate(0.000000, 1.000000)">
            <g id="Group-101" sketch:type="MSShapeGroup">
                <path d="M137.4399,78.5104 L118.6149,59.6854 L106.6049,63.6884 L114.6109,55.6814 L114.5979,55.6684 L141.9339,28.3324 C144.2099,26.0564 144.2099,22.3654 141.9339,20.0894 L123.2139,1.3694 C122.1209,0.2774 120.6389,-0.3376 119.0929,-0.3376 C117.5469,-0.3376 116.0639,0.2774 114.9709,1.3694 L64.7939,51.5474 C62.5179,53.8234 62.5179,57.5144 64.7939,59.7904 L87.6349,82.6314 L60.2999,109.9674 C58.0239,112.2434 58.0239,115.9344 60.2999,118.2104 L79.0199,136.9304 C80.1129,138.0234 81.5949,138.6374 83.1409,138.6374 C84.6869,138.6374 86.1699,138.0234 87.2629,136.9304 L137.4399,86.7534 C139.7159,84.4774 139.7159,80.7864 137.4399,78.5104" id="Fill-89" fill="#595959"></path>
                <path d="M74.5259,78.5104 L55.6939,59.6774 L43.6679,63.6864 L51.6849,55.6684 L79.0209,28.3324 C80.1129,27.2394 80.7279,25.7564 80.7279,24.2104 C80.7279,22.6644 80.1129,21.1824 79.0199,20.0894 L60.2999,1.3694 C59.1619,0.2324 57.6699,-0.3376 56.1779,-0.3376 C54.6869,-0.3376 53.1949,0.2324 52.0569,1.3694 L1.8799,51.5464 C-0.3961,53.8234 -0.3961,57.5134 1.8799,59.7894 L47.5639,105.4734 C48.7019,106.6114 50.1929,107.1804 51.6849,107.1804 C53.1769,107.1804 54.6689,106.6114 55.8069,105.4734 L74.5259,86.7534 C76.8019,84.4774 76.8019,80.7864 74.5259,78.5104" id="Fill-91" fill="#595959"></path>
                <path d="M204.8477,20.0905 L186.1277,1.3695 C185.0347,0.2775 183.5527,-0.3375 182.0067,-0.3375 C180.4607,-0.3375 178.9777,0.2775 177.8847,1.3695 L127.7077,51.5465 C126.6147,52.6405 126.0007,54.1225 126.0007,55.6685 C126.0007,57.2145 126.6147,58.6965 127.7077,59.7895 L150.5497,82.6315 L123.2147,109.9675 C120.9377,112.2435 120.9377,115.9345 123.2147,118.2105 L141.9347,136.9305 C143.0737,138.0695 144.5647,138.6375 146.0567,138.6375 C147.5487,138.6375 149.0397,138.0695 150.1787,136.9305 L200.3547,86.7535 C202.6307,84.4775 202.6307,80.7865 200.3547,78.5105 L181.5217,59.6785 L169.4957,63.6865 L177.5137,55.6685 L204.8477,28.3325 C207.1237,26.0565 207.1237,22.3655 204.8477,20.0905" id="Fill-93" fill="#595959"></path>
                <path d="M263.2681,78.5104 L217.5851,32.8274 C216.4471,31.6894 214.9551,31.1204 213.4641,31.1204 C211.9721,31.1204 210.4801,31.6894 209.3421,32.8274 L190.6231,51.5464 C188.3471,53.8234 188.3471,57.5134 190.6221,59.7894 L213.4631,82.6324 L213.4411,82.6554 L221.4271,90.6414 L209.4481,86.6484 L186.1281,109.9684 C185.0351,111.0624 184.4211,112.5444 184.4211,114.0904 C184.4211,115.6364 185.0361,117.1184 186.1281,118.2114 L204.8491,136.9304 C205.9861,138.0694 207.4781,138.6374 208.9701,138.6374 C210.4621,138.6374 211.9531,138.0694 213.0911,136.9304 L263.2681,86.7534 C265.5441,84.4774 265.5441,80.7864 263.2681,78.5104" id="Fill-95" fill="#00FFFF"></path>
                <path d="M452.0093,78.5114 L433.2893,59.7904 C432.1963,58.6974 430.7143,58.0824 429.1683,58.0824 C427.6223,58.0824 426.1393,58.6974 425.0463,59.7894 L397.7103,87.1254 L389.6923,95.1434 L393.7013,83.1164 L370.3763,59.7914 C369.2383,58.6544 367.7463,58.0844 366.2543,58.0844 C364.7623,58.0844 363.2713,58.6544 362.1333,59.7914 L343.4123,78.5114 C342.3203,79.6044 341.7053,81.0874 341.7053,82.6334 C341.7053,84.1794 342.3203,85.6614 343.4123,86.7544 L370.7473,114.0894 L353.7353,131.1024 C352.0683,132.7694 351.5693,135.2764 352.4713,137.4534 C353.3733,139.6324 355.4993,141.0524 357.8563,141.0524 L395.2983,141.0524 C396.8443,141.0524 398.3263,140.4384 399.4203,139.3444 L452.0093,86.7544 C454.2853,84.4784 454.2853,80.7874 452.0093,78.5114" id="Fill-97" fill="#00FFFF"></path>
                <path d="M359.3462,114.0905 C359.3462,112.5445 358.7322,111.0625 357.6392,109.9695 L307.4622,59.7915 C306.3692,58.6985 304.8872,58.0845 303.3412,58.0845 C301.7952,58.0845 300.3122,58.6985 299.2202,59.7915 L249.0432,109.9685 C247.9502,111.0625 247.3352,112.5445 247.3352,114.0905 C247.3352,115.6365 247.9502,117.1185 249.0432,118.2115 L267.7632,136.9315 C268.8562,138.0245 270.3392,138.6385 271.8852,138.6385 L271.8852,138.6385 C273.4312,138.6385 274.9132,138.0245 276.0062,136.9315 L295.3242,117.6125 L295.3232,117.6125 L311.3582,101.5775 L307.3492,113.6045 L330.6762,136.9315 C331.8132,138.0695 333.3052,138.6385 334.7972,138.6385 C336.2892,138.6385 337.7812,138.0695 338.9192,136.9315 L357.6392,118.2115 C358.7322,117.1185 359.3462,115.6365 359.3462,114.0905" id="Fill-99" fill="#00FFFF"></path>
            </g>
        </g>
    </g>
</svg>